<svg xmlns="http://www.w3.org/2000/svg" viewBox="0 0 626.35 461.39"><defs><style>.cls-1{fill:#fff;}.cls-1,.cls-2,.cls-3{stroke:#000;}.cls-1,.cls-2,.cls-3,.cls-4,.cls-5{stroke-miterlimit:10;}.cls-1,.cls-2,.cls-3,.cls-4{stroke-width:0.75px;}.cls-2,.cls-4{fill:none;}.cls-4,.cls-5{stroke:#c1272d;}.cls-5{font-size:224.14px;fill:#c1272d;stroke-width:2px;font-family:SFProDisplay-Ultralight, SF Pro Display;font-weight:100;}</style></defs><title>Asset 1</title><g id="Layer_2" data-name="Layer 2"><g id="Layer_1-2" data-name="Layer 1"><path class="cls-1" d="M40.46,101H585.87a3,3,0,0,1,3,3V450.83a0,0,0,0,1,0,0H37.46a0,0,0,0,1,0,0V104a3,3,0,0,1,3-3Z"/><rect class="cls-1" x="58.42" y="123.54" width="509.49" height="295.05"/><path class="cls-1" d="M.4,434.71H626a0,0,0,0,1,0,0v18.79a7,7,0,0,1-7,7H7.4a7,7,0,0,1-7-7V434.71a0,0,0,0,1,0,0Z" transform="translate(-0.74 0.52) rotate(-0.1)"/><path class="cls-1" d="M261.57,434.71H364.76a0,0,0,0,1,0,0v6.67a3,3,0,0,1-3,3H264.57a3,3,0,0,1-3-3v-6.67A0,0,0,0,1,261.57,434.71Z"/><path class="cls-2" d="M420,146.11V376.67a9.67,9.67,0,0,1-9.67,9.67H239.43a9.67,9.67,0,0,1-9.67-9.67V188l51.59-51.6h129A9.67,9.67,0,0,1,420,146.11Z"/><path class="cls-2" d="M283,136.43v47.11a6.11,6.11,0,0,1-6.1,6.1H229.76V188l51.59-51.6Z"/><line class="cls-2" x1="334.56" y1="386.34" x2="334.56" y2="418.59"/><circle class="cls-3" cx="279.74" cy="212.21" r="6.45"/><circle class="cls-3" cx="370.03" cy="212.21" r="6.45"/><path class="cls-2" d="M263.62,254.13s64.49-35.47,125.76,0"/><line class="cls-2" x1="241.05" y1="308.95" x2="405.5" y2="308.95"/><line class="cls-2" x1="241.05" y1="325.07" x2="405.5" y2="325.07"/><line class="cls-2" x1="241.05" y1="341.2" x2="405.5" y2="341.2"/><line class="cls-2" x1="241.05" y1="357.32" x2="308.76" y2="357.32"/><line class="cls-4" x1="294.25" y1="286.38" x2="361.97" y2="286.38"/><path class="cls-2" d="M420,242.89s1.61,27.36,30.64,27.36"/><path class="cls-2" d="M229.75,242.89s2.15,27.36-32.23,27.36"/><text class="cls-5" transform="translate(133.92 192.03)">?</text><line class="cls-2" x1="318.44" y1="386.34" x2="318.44" y2="418.59"/></g></g></svg>